<svg width="110" height="110" viewBox="0 0 110 110" fill="none" xmlns="http://www.w3.org/2000/svg">
<g clip-path="url(#clip0)">
<path d="M101.688 26.56L56.2787 0.342446C55.4878 -0.114311 54.5126 -0.114311 53.7216 0.342446L8.31164 26.5596C7.52081 27.0163 7.03333 27.8604 7.03333 28.7737V81.2088C7.03333 82.1221 7.52059 82.9665 8.31164 83.423C57.0805 111.58 53.9992 109.983 54.9999 109.983C55.4416 109.983 55.8827 109.869 56.2787 109.641L101.688 83.4232C102.48 82.9667 102.967 82.1223 102.967 81.209V28.774C102.967 27.8607 102.479 27.0163 101.688 26.56Z" fill="#00A3FF"/>
<path d="M101.688 26.56L89.9551 19.7858C76.7195 22.722 66.164 44.0811 65.7341 70.17C65.5416 81.8471 67.4095 92.6419 70.7075 101.31L101.688 83.423C102.48 82.9665 102.967 82.1221 102.967 81.2088V28.774C102.967 27.8607 102.479 27.0163 101.688 26.56Z" fill="#48BEFF"/>
<path d="M101.688 26.56L56.2786 0.342446C55.4878 -0.114311 54.5126 -0.114311 53.7216 0.342446L8.31165 26.5596C7.91612 26.7877 7.59665 27.113 7.37622 27.495C7.59665 27.8772 7.91612 28.2022 8.31165 28.4304L53.7216 54.6477C54.1171 54.8759 54.559 54.9902 54.9999 54.9902C55.4416 54.9902 55.8827 54.8761 56.2786 54.6477L101.688 28.4304C102.083 28.202 102.403 27.877 102.624 27.495C102.403 27.113 102.083 26.7879 101.688 26.56Z" fill="#FF0C55"/>
<path d="M101.688 26.56L56.2786 0.342446C55.4878 -0.114311 54.5126 -0.114311 53.7216 0.342446L27.7943 15.3114C26.5278 17.5495 25.8448 19.9185 25.8448 22.371C25.8448 35.3718 44.9463 46.04 69.2859 47.1379L101.688 28.4304C102.083 28.202 102.403 27.877 102.624 27.495C102.403 27.113 102.083 26.7879 101.688 26.56Z" fill="#FF3370"/>
<path d="M8.31164 28.4307C7.91612 28.2023 7.59664 27.8772 7.37622 27.4952C7.15493 27.8777 7.03333 28.3172 7.03333 28.774V81.2091C7.03333 82.1224 7.52059 82.9667 8.31164 83.4233C57.0804 111.58 53.9992 109.983 54.9999 109.983V54.9903C54.559 54.9903 54.1171 54.8762 53.7216 54.6478L8.31164 28.4307Z" fill="#FFCB5C"/>
<path d="M54.9999 75.7585V71.9341L40.6671 63.6591V47.1111L37.3548 45.1987V61.7468L24.6778 54.4278V37.8797L21.3656 35.9673V52.5154L7.03314 44.2405V48.0652L21.3656 56.3399V70.9043L7.03314 62.6296V66.454L21.3656 74.7287V90.9597L24.6778 92.872V76.6411L37.3548 83.9601V100.191L40.6671 102.103V85.8724L54.9999 94.1474V90.3229L40.6671 82.048V67.4836L54.9999 75.7585ZM37.3551 80.1359L24.678 72.8168V58.2524L37.3551 65.5715V80.1359Z" fill="#FF8828"/>
<path d="M85.3197 37.8808L88.6319 35.9684L74.1852 27.6276L88.8616 19.1542L85.5493 17.2418L70.8727 25.7153L58.082 18.3307L72.7586 9.85702L69.4466 7.9447L54.77 16.4183L40.3233 8.0779L37.0113 9.99001L51.458 18.3307L38.6673 25.7155L24.2206 17.3746L20.9083 19.2869L35.355 27.6278L21.1382 35.8359L24.4504 37.7482L38.6673 29.5401L51.458 36.9247L37.2411 45.1328L40.5534 47.0451L54.7702 38.837L69.2171 47.1779L72.5294 45.2656L58.0825 36.9247L70.8732 29.5401L85.3197 37.8808ZM54.77 35.0124L41.9793 27.6278L54.77 20.243L67.5607 27.6278L54.77 35.0124Z" fill="#D3003F"/>
<path d="M102.967 47.9928V44.1683L88.6336 52.4435V35.9673L85.3213 37.8797V54.3556L72.6452 61.674V45.1987L69.3329 47.1111V63.5867L54.9996 71.8619V75.6863L69.3329 67.4112V81.9758L54.9996 90.251V94.0754L69.3329 85.8003V102.104L72.6452 100.191V83.8882L85.3213 76.5695V92.8727L88.6336 90.9604V74.6574L102.967 66.3823V62.5579L88.6336 70.833V56.2685L102.967 47.9928ZM85.3213 72.7449L72.6452 80.0635V65.4989L85.3213 58.1804V72.7449Z" fill="#1E7EB9"/>
</g>
<defs>
<clipPath id="clip0">
<rect width="110" height="110" fill="white"/>
</clipPath>
</defs>
</svg>
