<svg width="50" height="50" viewBox="0 0 50 50" fill="none" xmlns="http://www.w3.org/2000/svg">
<g clip-path="url(#clip0)">
<path d="M10.1244 5.86132L7.42323 13.2829L13.3218 14.2594L19.1416 13.2829L16.4405 5.86132L13.2524 4.88477L10.1244 5.86132Z" fill="#FFEDE4"/>
<path d="M19.1414 13.2824L13.3213 14.2589L13.2823 14.252V4.89307L16.4404 5.86083L19.1414 13.2824Z" fill="#FFDDCE"/>
<path d="M14.6552 0.957227C14.1835 -0.311035 12.3816 -0.312793 11.9094 0.957227L10.1242 5.86221H16.4404L14.6552 0.957227Z" fill="#004692"/>
<path d="M16.4404 5.86123H13.2823V0.00390625C13.8506 0.00390625 14.419 0.321289 14.6553 0.956055L16.4404 5.86123Z" fill="#00204D"/>
<path d="M47.4988 0.430719L0.43031 47.4992C-0.489308 48.4188 0.162149 49.9998 1.46604 49.9998H48.5345C49.3435 49.9998 49.9994 49.3439 49.9994 48.5349V1.46645C49.9994 0.165683 48.4204 -0.491243 47.4988 0.430719ZM41.2106 41.211H19.1476L41.2106 19.148V41.211Z" fill="#CEE8FF"/>
<path d="M47.4988 0.43058L25.0006 22.9288V35.359L41.211 19.1486V41.2112H25.0006V50H48.5349C49.3435 50 49.9998 49.3438 49.9998 48.5352V1.4667C49.9997 0.165935 48.4206 -0.491284 47.4988 0.43058Z" fill="#AEDAFF"/>
<path d="M19.1414 13.2827H7.42311V41.1136L8.39966 42.5785H18.1649L19.1414 41.1136V13.2827Z" fill="#FF6593"/>
<path d="M19.1414 13.2827V41.1136L18.1648 42.5785H13.2823V13.2827H19.1414Z" fill="#F92665"/>
<path d="M8.39966 42.5781L7.42311 44.043V48.535C7.42311 49.344 8.07896 49.9998 8.88794 49.9998H17.6767C18.4857 49.9998 19.1415 49.344 19.1415 48.535V44.043L18.165 42.5781H8.39966Z" fill="#FF6593"/>
<path d="M19.1414 44.0429V48.535C19.1414 49.3436 18.4852 49.9998 17.6766 49.9998H13.2822V42.5781H18.1649L19.1414 44.0429Z" fill="#F92665"/>
<path d="M36.6214 1.46678V8.88837L35.6448 10.4057L36.6214 11.8179V14.8451L35.6448 16.2648L36.6214 17.7747V20.6066L35.6448 22.0939L36.6214 23.5361V26.5634L35.6448 28.1333L36.6214 29.4929V32.5201L35.6448 34.0525L36.6214 35.4497V38.4769L35.6448 39.9717L36.6214 41.4064V48.5351C36.6214 49.3437 35.9651 49.9999 35.1565 49.9999H23.5359C22.7273 49.9999 22.071 49.3437 22.071 48.5351V1.46678C22.071 0.658195 22.7273 0.00195312 23.5359 0.00195312H35.1565C35.9651 0.00195312 36.6214 0.658195 36.6214 1.46678Z" fill="#FFDA2D"/>
<path d="M36.6213 8.88837L35.6448 10.4059L36.6213 11.818V14.8452L35.6448 16.2651L36.6213 17.7749V20.6068L35.6448 22.0941L36.6213 23.5364V26.5637L35.6448 28.1339L36.6213 29.4933V32.5205L35.6448 34.0527L36.6213 35.4502V38.4774L35.6448 39.9725L36.6213 41.407V48.5357C36.6213 49.3442 35.9651 50.0005 35.1565 50.0005H29.3462V0.00195312H35.1565C35.9651 0.00195312 36.6213 0.658195 36.6213 1.46678V8.88837Z" fill="#FFAA17"/>
<path d="M36.6214 14.8453V17.7749H31.2504C30.4418 17.7749 29.7856 17.1187 29.7856 16.3101C29.7856 15.5015 30.4418 14.8452 31.2504 14.8452H36.6214V14.8453Z" fill="#FF7900"/>
<path d="M36.6214 8.88828V11.8179H31.2504C30.4418 11.8179 29.7856 11.1616 29.7856 10.353C29.7856 9.54443 30.4418 8.88818 31.2504 8.88818H36.6214V8.88828Z" fill="#FF7900"/>
<path d="M36.6214 38.4771V41.4067H31.2504C30.4418 41.4067 29.7856 40.7505 29.7856 39.9419C29.7856 39.1333 30.4418 38.4771 31.2504 38.4771H36.6214V38.4771Z" fill="#FF7900"/>
<path d="M36.6214 32.5201V35.4497H31.2504C30.4418 35.4497 29.7856 34.7935 29.7856 33.9849C29.7856 33.1763 30.4418 32.52 31.2504 32.52H36.6214V32.5201Z" fill="#FF7900"/>
<path d="M36.6214 26.5636V29.4932H31.2504C30.4418 29.4932 29.7856 28.8369 29.7856 28.0283C29.7856 27.2197 30.4418 26.5635 31.2504 26.5635H36.6214V26.5636Z" fill="#FF7900"/>
<path d="M36.6214 20.6065V23.5361H31.2504C30.4418 23.5361 29.7856 22.8799 29.7856 22.0713C29.7856 21.2627 30.4418 20.6064 31.2504 20.6064H36.6214V20.6065Z" fill="#FF7900"/>
<path d="M7.42311 41.1133H19.1414V44.0429H7.42311V41.1133Z" fill="#004692"/>
<path d="M13.2823 41.1133H19.1415V44.0429H13.2823V41.1133Z" fill="#00204D"/>
</g>
<defs>
<clipPath id="clip0">
<rect width="50" height="50" fill="white"/>
</clipPath>
</defs>
</svg>
