<svg width="50" height="50" viewBox="0 0 50 50" fill="none" xmlns="http://www.w3.org/2000/svg">
<g clip-path="url(#clip0)">
<path d="M4.70184 0.000976562C2.10507 0.000976562 0 2.10605 0 4.70272V45.6062C0 46.4151 0.655857 47.071 1.46484 47.071H30.8593C31.6682 47.071 32.3241 46.4151 32.3241 45.6062V0.293847L4.70184 0.000976562Z" fill="#EDF5FF"/>
<path d="M32.3242 0.292968V45.6053C32.3242 46.4139 31.6679 47.0701 30.8593 47.0701H16.1621V0.121094L32.3242 0.292968Z" fill="#CEE8FF"/>
<path d="M4.69873 0H32.065C34.6628 0 36.7687 2.10595 36.7687 4.70369V7.46735C36.7687 8.27633 36.1129 8.93219 35.3039 8.93219H10.8673C10.0583 8.93219 9.40242 8.27633 9.40242 7.46735V4.70369C9.40242 2.10585 7.29647 0 4.69873 0Z" fill="#CEE8FF"/>
<path d="M36.7686 4.7041V7.46777C36.7686 8.27637 36.1133 8.93262 35.3037 8.93262H16.1621V0H32.0654C34.6631 0 36.7686 2.10547 36.7686 4.7041Z" fill="#AEDAFF"/>
<path d="M9.60889 15.1263L7.76387 16.9713L7.33477 16.5423C6.7628 15.9703 5.83526 15.9703 5.26319 16.5423C4.69112 17.1144 4.69112 18.0418 5.26319 18.6139L6.72803 20.0788C7.30001 20.6508 8.22755 20.6509 8.79962 20.0788L11.6805 17.1979C12.2525 16.6258 12.2525 15.6984 11.6805 15.1263C11.1085 14.5542 10.181 14.5542 9.60889 15.1263Z" fill="#FF5274"/>
<path d="M9.60868 24.013L7.76366 25.8582L7.33456 25.4291C6.76259 24.8571 5.83505 24.8571 5.26298 25.4291C4.69091 26.001 4.69091 26.9286 5.26298 27.5006L6.72782 28.9655C7.29999 29.5375 8.22733 29.5375 8.7994 28.9655L11.6803 26.0846C12.2523 25.5126 12.2523 24.5851 11.6803 24.013C11.1083 23.441 10.1807 23.441 9.60868 24.013Z" fill="#FF5274"/>
<path d="M9.60871 32.762L7.76369 34.6071L7.33459 34.178C6.76262 33.606 5.83508 33.606 5.26301 34.178C4.69094 34.75 4.69094 35.6775 5.26301 36.2496L6.72785 37.7144C7.30002 38.2865 8.22736 38.2865 8.79943 37.7144L11.6803 34.8336C12.2524 34.2616 12.2524 33.3341 11.6803 32.762C11.1083 32.19 10.1808 32.19 9.60871 32.762Z" fill="#FF5274"/>
<path d="M16.0645 19.1406H26.0254C26.8344 19.1406 27.4902 18.4848 27.4902 17.6758C27.4902 16.8668 26.8344 16.2109 26.0254 16.2109H16.0645C15.2555 16.2109 14.5996 16.8668 14.5996 17.6758C14.5996 18.4848 15.2555 19.1406 16.0645 19.1406Z" fill="#FF5274"/>
<path d="M27.4902 17.6758C27.4902 18.4844 26.834 19.1406 26.0254 19.1406H16.1621V16.2109H26.0254C26.834 16.2109 27.4902 16.8672 27.4902 17.6758Z" fill="#FF5274"/>
<path d="M26.0254 25H16.0644C15.2554 25 14.5996 25.6559 14.5996 26.4648C14.5996 27.2738 15.2554 27.9297 16.0644 27.9297H26.0254C26.8343 27.9297 27.4902 27.2738 27.4902 26.4648C27.4902 25.6559 26.8343 25 26.0254 25Z" fill="#FF5274"/>
<path d="M27.4901 26.4648C27.4901 27.2734 26.8339 27.9297 26.0253 27.9297H16.162V25H26.0253C26.8339 25 27.4901 25.6562 27.4901 26.4648Z" fill="#FF5274"/>
<path d="M26.0254 33.749H16.0644C15.2554 33.749 14.5996 34.4049 14.5996 35.2139C14.5996 36.0228 15.2554 36.6787 16.0644 36.6787H26.0254C26.8343 36.6787 27.4902 36.0228 27.4902 35.2139C27.4902 34.4049 26.8343 33.749 26.0254 33.749Z" fill="#FF5274"/>
<path d="M27.4901 35.2139C27.4901 36.0225 26.8339 36.6787 26.0253 36.6787H16.162V33.749H26.0253C26.8339 33.749 27.4901 34.4053 27.4901 35.2139Z" fill="#FF5274"/>
<path d="M32.368 49.9999C40.1884 49.9999 46.5281 43.6602 46.5281 35.8398C46.5281 28.0194 40.1884 21.6797 32.368 21.6797C24.5476 21.6797 18.2079 28.0194 18.2079 35.8398C18.2079 43.6602 24.5476 49.9999 32.368 49.9999Z" fill="#FF7900"/>
<path d="M46.5281 35.8398C46.5281 43.6474 40.1756 49.9999 32.368 49.9999V21.6797C40.1756 21.6797 46.5281 28.0322 46.5281 35.8398Z" fill="#FF4800"/>
<path d="M32.3681 47.0703C38.5705 47.0703 43.5986 42.0423 43.5986 35.8398C43.5986 29.6374 38.5705 24.6094 32.3681 24.6094C26.1657 24.6094 21.1376 29.6374 21.1376 35.8398C21.1376 42.0423 26.1657 47.0703 32.3681 47.0703Z" fill="#FFDA2D"/>
<path d="M43.5985 35.8398C43.5985 42.0322 38.5604 47.0703 32.368 47.0703V24.6094C38.5604 24.6094 43.5985 29.6475 43.5985 35.8398Z" fill="#FFAA17"/>
<path d="M32.368 43.6523C36.6827 43.6523 40.1805 40.1546 40.1805 35.8398C40.1805 31.5251 36.6827 28.0273 32.368 28.0273C28.0533 28.0273 24.5555 31.5251 24.5555 35.8398C24.5555 40.1546 28.0533 43.6523 32.368 43.6523Z" fill="#FF7900"/>
<path d="M40.1805 35.8398C40.1805 40.1475 36.6757 43.6523 32.368 43.6523V28.0273C36.6757 28.0273 40.1805 31.5322 40.1805 35.8398Z" fill="#FF4800"/>
<path d="M32.368 40.7227C35.0647 40.7227 37.2508 38.5365 37.2508 35.8398C37.2508 33.1431 35.0647 30.957 32.368 30.957C29.6713 30.957 27.4852 33.1431 27.4852 35.8398C27.4852 38.5365 29.6713 40.7227 32.368 40.7227Z" fill="#FFDA2D"/>
<path d="M37.2509 35.8398C37.2509 38.5322 35.0604 40.7227 32.368 40.7227V30.957C35.0604 30.957 37.2509 33.1475 37.2509 35.8398Z" fill="#FFAA17"/>
<path d="M48.9983 23.8074L45.5499 22.658L44.4005 19.2096C44.0568 18.1786 42.7448 17.8673 41.975 18.637L36.796 23.816C36.4036 24.2083 36.2667 24.7887 36.4421 25.315L37.5369 28.5994L31.3322 34.8041C30.7601 35.3761 30.7601 36.3036 31.3322 36.8757C31.9043 37.4479 32.8317 37.4478 33.4038 36.8757L39.6085 30.671C42.9784 31.7685 42.9397 31.8409 43.3558 31.8409C43.7383 31.8409 44.1127 31.6911 44.3918 31.4118L49.5708 26.2328C50.3393 25.4646 50.031 24.1517 48.9983 23.8074Z" fill="#0066B2"/>
<path d="M49.5712 26.2325L44.3915 31.4122C44.1122 31.6915 43.7382 31.8409 43.3554 31.8409C42.9393 31.8409 42.9784 31.7686 39.6083 30.671L33.4042 36.876C33.118 37.1622 32.743 37.3047 32.368 37.3047V33.7676L37.537 28.5997L36.4423 25.3155C36.2665 24.7891 36.4032 24.2081 36.7958 23.8165L41.9755 18.6368C42.745 17.8673 44.0565 18.1788 44.4003 19.21L45.5497 22.6583L48.9979 23.8077C50.0312 24.1514 50.3397 25.4649 49.5712 26.2325Z" fill="#004692"/>
</g>
<defs>
<clipPath id="clip0">
<rect width="50" height="50" fill="white"/>
</clipPath>
</defs>
</svg>
