<svg width="50" height="50" viewBox="0 0 50 50" fill="none" xmlns="http://www.w3.org/2000/svg">
<path d="M49.1196 6.75729L47.2066 2.91759L44.8774 2.4292L42.4999 2.91759L40.6294 6.77097C40.5327 6.97023 40.4819 7.18903 40.4819 7.41076V26.3602L41.068 27.8705L48.6868 27.878L49.2729 26.3603V7.41086C49.2729 7.18415 49.2202 6.96046 49.1196 6.75729Z" fill="#FFDA2D"/>
<path d="M49.1196 6.75729L47.2066 2.91759L44.8774 2.4292V27.8742L48.6868 27.8781L49.2729 26.3602V7.41076C49.2729 7.18415 49.2202 6.96046 49.1196 6.75729Z" fill="#FFAA17"/>
<path d="M5.17144 49.9987C2.7169 49.9987 0.727112 48.0089 0.727112 45.5544V1.55061C0.727112 0.741452 1.38311 0.0854492 2.19228 0.0854492H34.5236C35.3327 0.0854492 35.9887 0.741452 35.9887 1.55061C35.9887 3.88735 36.025 43.6105 36.025 43.6105L6.90151 49.8344C6.35178 49.9519 5.79062 50.0073 5.22849 49.9995L5.17144 49.9987Z" fill="#4EC9FF"/>
<path d="M36.0249 43.6106L18.3765 47.3819V0.0854492H34.5236C35.3323 0.0854492 35.9887 0.741843 35.9887 1.55061C35.9887 86.201 35.9907 4.8277 36.0249 43.6106Z" fill="#0095FF"/>
<path d="M30.0304 20.695C30.8396 20.695 31.4956 20.039 31.4956 19.2298V10.2435C31.4956 9.43432 30.8396 8.77832 30.0304 8.77832H12.5461C11.737 8.77832 11.081 9.43432 11.081 10.2435C11.081 11.0526 11.737 11.7086 12.5461 11.7086H16.8439V19.1321C16.8439 19.9413 17.4999 20.5973 18.3091 20.5973C19.1183 20.5973 19.7743 19.9413 19.7743 19.1321V11.7086H28.5653V17.7647H24.1698C23.3606 17.7647 22.7046 18.4207 22.7046 19.2298V24.9928C22.7046 25.802 23.3606 26.458 24.1698 26.458H28.5653V32.3186H27.1978C26.3886 32.3186 25.7326 32.9746 25.7326 33.7838C25.7326 34.593 26.3886 35.249 27.1978 35.249H30.0304C30.8396 35.249 31.4956 34.593 31.4956 33.7838V24.9928C31.4956 24.1836 30.8396 23.5276 30.0304 23.5276H25.6349V20.695H30.0304Z" fill="#EDF5FF"/>
<path d="M25.6349 20.695V23.5276H30.0304C30.8392 23.5276 31.4956 24.184 31.4956 24.9928V33.7838C31.4956 34.5926 30.8392 35.249 30.0304 35.249H27.1978C26.389 35.249 25.7326 34.5926 25.7326 33.7838C25.7326 32.975 26.389 32.3186 27.1978 32.3186H28.5652V26.458H24.1697C23.361 26.458 22.7046 25.8016 22.7046 24.9928V19.2298C22.7046 18.4211 23.361 17.7647 24.1697 17.7647H28.5652V11.7086H19.7742V19.1321C19.7742 19.9185 19.154 20.5602 18.3765 20.5954V8.77832H30.0304C30.8392 8.77832 31.4956 9.43471 31.4956 10.2435V19.2298C31.4956 20.0386 30.8392 20.695 30.0304 20.695H25.6349Z" fill="#CEE8FF"/>
<path d="M48.6868 27.878L49.2729 29.2906V35.249C49.2729 36.0577 48.6165 36.7141 47.8078 36.7141H41.9471C41.1383 36.7141 40.4819 36.0577 40.4819 35.249V29.2906L41.068 27.8706L48.6868 27.878Z" fill="#E63950"/>
<path d="M49.2729 29.2908V35.2492C49.2729 36.0579 48.6165 36.7143 47.8077 36.7143H44.8774V27.8745L48.6868 27.8784L49.2729 29.2908Z" fill="#CD0000"/>
<path d="M40.4819 26.3604H49.2729V29.2907H40.4819V26.3604Z" fill="#FFAA17"/>
<path d="M44.8774 26.3604H49.2729V29.2907H44.8774V26.3604Z" fill="#FF7900"/>
<path d="M37.405 41.1099H8.05916C7.58142 41.1099 7.39046 41.7213 7.7799 41.9981C8.90163 42.7956 9.61575 44.0644 9.61575 45.5542C9.61575 48.0087 7.62596 49.9985 5.17142 49.9985H37.405C39.8596 49.9985 41.8494 48.0087 41.8494 45.5542C41.8494 43.0997 39.8596 41.1099 37.405 41.1099Z" fill="#9BFCFF"/>
<path d="M41.8494 45.5542C41.8494 48.0089 39.8588 49.9985 37.4051 49.9985H18.3765V41.1099H37.4051C39.8598 41.1099 41.8494 43.1004 41.8494 45.5542Z" fill="#4EC9FF"/>
<path d="M22.1968 32.9227L7.93586 9.57773C7.16713 8.31944 5.22032 8.86585 5.22032 10.3416V33.6865C5.22032 34.4957 5.87632 35.1517 6.68549 35.1517H20.9464C22.084 35.1517 22.7955 33.9029 22.1968 32.9227ZM8.15065 32.2214V15.5506L18.3344 32.2214H8.15065Z" fill="#EDF5FF"/>
<path d="M22.1967 32.9223L18.3765 26.6689V35.1512H20.9464C22.0843 35.1512 22.7954 33.902 22.1967 32.9223Z" fill="#CEE8FF"/>
<path d="M47.207 2.91761H42.4999L43.5127 0.831122C44.0475 -0.270681 45.6144 -0.278788 46.1606 0.817448L47.207 2.91761Z" fill="#EDF5FF"/>
<path d="M47.207 2.91763H44.8774V0.000976562C45.3883 0.0126979 45.8952 0.285218 46.1609 0.817561L47.207 2.91763Z" fill="#CEE8FF"/>
</svg>
