<svg width="50" height="50" viewBox="0 0 50 50" fill="none" xmlns="http://www.w3.org/2000/svg">
<path d="M50 10.2412V48.5352C50 49.3438 49.3438 50 48.5352 50H7.51953C6.71094 50 6.05469 49.3438 6.05469 48.5352V43.1641H30.6941L42.9688 33.7815V8.77637H48.5352C49.3438 8.77637 50 9.43262 50 10.2412Z" fill="#FF637B"/>
<path d="M50 10.2412V48.5352C50 49.3438 49.3438 50 48.5352 50H21.9727V43.1641H30.6943L42.9688 33.7813V8.77637H48.5352C49.3438 8.77637 50 9.43262 50 10.2412Z" fill="#E63950"/>
<path d="M30.7617 44.1406H1.46484C0.655859 44.1406 0 43.4848 0 42.6758V7.51953C0 6.71055 0.655859 6.05469 1.46484 6.05469H29.2969L30.7201 7.03125L32.2266 6.05469H42.4805C43.2891 6.05469 43.9453 6.71094 43.9453 7.51953L43.9416 33.7891L35.5301 38.8615L30.7617 44.1406Z" fill="#FFDA2D"/>
<path d="M43.9453 7.51953L43.9414 33.7891L35.5303 38.8613L30.7617 44.1406H21.9727V6.05469H29.2969L30.7417 7.03125L32.2266 6.05469H42.4805C43.2891 6.05469 43.9453 6.71094 43.9453 7.51953Z" fill="#FFAA17"/>
<path d="M30.7617 35.2539V44.1406L43.9396 33.7891H32.2266C31.4176 33.7891 30.7617 34.4449 30.7617 35.2539Z" fill="#FF7900"/>
<path d="M10.2539 23.5352H33.6914C34.5004 23.5352 35.1562 22.8793 35.1562 22.0703C35.1562 21.2613 34.5004 20.6055 33.6914 20.6055H10.2539C9.44492 20.6055 8.78906 21.2613 8.78906 22.0703C8.78906 22.8793 9.44492 23.5352 10.2539 23.5352Z" fill="#FF7900"/>
<path d="M35.1562 22.0703C35.1562 22.8789 34.5 23.5352 33.6914 23.5352H21.9727V20.6055H33.6914C34.5 20.6055 35.1562 21.2617 35.1562 22.0703Z" fill="#FF4800"/>
<path d="M10.2539 29.3945H22.9492C23.7582 29.3945 24.4141 28.7387 24.4141 27.9297C24.4141 27.1207 23.7582 26.4648 22.9492 26.4648H10.2539C9.44492 26.4648 8.78906 27.1207 8.78906 27.9297C8.78906 28.7387 9.44492 29.3945 10.2539 29.3945Z" fill="#FF7900"/>
<path d="M24.4141 27.9297C24.4141 28.7383 23.7578 29.3945 22.9492 29.3945H21.9727V26.4648H22.9492C23.7578 26.4648 24.4141 27.1211 24.4141 27.9297Z" fill="#FF4800"/>
<path d="M24.9023 32.3242H10.2539C9.44492 32.3242 8.78906 32.9801 8.78906 33.7891C8.78906 34.598 9.44492 35.2539 10.2539 35.2539H24.9023C25.7113 35.2539 26.3672 34.598 26.3672 33.7891C26.3672 32.9801 25.7113 32.3242 24.9023 32.3242Z" fill="#FF7900"/>
<path d="M26.3672 33.7891C26.3672 34.5977 25.7109 35.2539 24.9023 35.2539H21.9727V32.3242H24.9023C25.7109 32.3242 26.3672 32.9805 26.3672 33.7891Z" fill="#FF4800"/>
<path d="M33.6914 26.4648H28.8086C27.9996 26.4648 27.3438 27.1207 27.3438 27.9297C27.3438 28.7387 27.9996 29.3945 28.8086 29.3945H33.6914C34.5004 29.3945 35.1562 28.7387 35.1562 27.9297C35.1562 27.1207 34.5004 26.4648 33.6914 26.4648Z" fill="#FF4800"/>
<path d="M29.2969 0C26.066 0 23.4375 2.62852 23.4375 5.85938V13.2812C23.4375 15.7044 25.4089 17.6758 27.832 17.6758C30.2552 17.6758 32.2266 15.7044 32.2266 13.2812V6.05723H29.2969V13.2812C29.2969 14.089 28.6397 14.7461 27.832 14.7461C27.0243 14.7461 26.3672 14.089 26.3672 13.2812V5.85938C26.3672 4.24395 27.6814 2.92969 29.2969 2.92969C30.9123 2.92969 32.2266 4.24395 32.2266 5.85938V6.05723H35.1562V5.85938C35.1562 2.62852 32.5277 0 29.2969 0Z" fill="#0066B2"/>
</svg>
