<svg version="1.1" xmlns="http://www.w3.org/2000/svg" fill="none" xmlns:xlink="http://www.w3.org/1999/xlink">
    
    <defs>
        <symbol id="icon-close-sidebar" viewBox="0 0 40 40">
            <path d="M20 40C31.0284 40 40 31.0284 40 20C40 8.97164 31.0284 0 20 0C8.97164 0 0 8.97164 0 20C0 31.0284 8.97164 40 20 40ZM15.4884 12.845C14.8367 12.1934 14.8367 11.14 15.4884 10.4884C15.8134 10.1634 16.24 10 16.6667 10C17.0934 10 17.5201 10.1634 17.8451 10.4884L26.1784 18.8216C26.83 19.4733 26.83 20.5266 26.1784 21.1783L17.845 29.5116C17.1934 30.1633 16.14 30.1633 15.4884 29.5116C14.8367 28.86 14.8367 27.8066 15.4884 27.155L22.6434 20L15.4884 12.845Z"/>
        </symbol>
    </defs>

    <defs>
        <symbol id="icon-open-sidebar" viewBox="0 0 40 40">
            <path d="M20 0C8.97164 0 0 8.97164 0 20C0 31.0284 8.97164 40 20 40C31.0284 40 40 31.0284 40 20C40 8.97164 31.0284 0 20 0ZM24.5116 27.155C25.1633 27.8066 25.1633 28.86 24.5116 29.5116C24.1866 29.8366 23.76 30 23.3333 30C22.9066 30 22.4799 29.8366 22.1549 29.5116L13.8216 21.1784C13.17 20.5267 13.17 19.4734 13.8216 18.8217L22.155 10.4884C22.8066 9.83672 23.86 9.83672 24.5116 10.4884C25.1633 11.14 25.1633 12.1934 24.5116 12.845L17.3566 20L24.5116 27.155Z"/>
        </symbol>
    </defs>


    <defs>
        <symbol id="icon-close-modal" viewBox="0 0 30 30">
            <path d="M17.7485 15.025L29.4299 3.34324C30.1901 2.58339 30.1901 1.35482 29.4299 0.594973C28.67 -0.164877 27.4415 -0.164877 26.6816 0.594973L14.9998 12.2767L3.31843 0.594973C2.55822 -0.164877 1.33 -0.164877 0.570155 0.594973C-0.190052 1.35482 -0.190052 2.58339 0.570155 3.34324L12.2516 15.025L0.570155 26.7068C-0.190052 27.4666 -0.190052 28.6952 0.570155 29.455C0.948834 29.8341 1.44674 30.0245 1.94429 30.0245C2.44184 30.0245 2.93939 29.8341 3.31843 29.455L14.9998 17.7733L26.6816 29.455C27.0606 29.8341 27.5582 30.0245 28.0557 30.0245C28.5533 30.0245 29.0508 29.8341 29.4299 29.455C30.1901 28.6952 30.1901 27.4666 29.4299 26.7068L17.7485 15.025Z"/>
        </symbol>
    </defs>

</svg>

