<svg width="41" height="41" viewBox="0 0 41 41" fill="none" xmlns="http://www.w3.org/2000/svg">
<g clip-path="url(#clip0)">
<path d="M8.79397 5.39074L6.63306 11.328L11.3519 12.1092L16.0077 11.328L13.8469 5.39074L11.2964 4.6095L8.79397 5.39074Z" fill="#FFEDE4"/>
<path d="M16.0076 11.3281L11.3516 12.1092L11.3203 12.1038V4.61658L13.8468 5.39079L16.0076 11.3281Z" fill="#FFDDCE"/>
<path d="M12.4187 1.46815C12.0414 0.45354 10.5999 0.452134 10.2221 1.46815L8.79395 5.39213H13.8469L12.4187 1.46815Z" fill="#FF637B"/>
<path d="M13.8468 5.39216H11.3203V0.706299C11.775 0.706299 12.2297 0.960205 12.4187 1.46802L13.8468 5.39216Z" fill="#E63950"/>
<path d="M38.6936 1.04648L1.03885 38.7013C0.303158 39.437 0.824324 40.7017 1.86744 40.7017H39.5222C40.1694 40.7017 40.6941 40.177 40.6941 39.5299V1.87506C40.6941 0.834451 39.4309 0.30891 38.6936 1.04648V1.04648ZM33.6631 33.6707H16.0127L33.6631 16.0203V33.6707Z" fill="#CEE8FF"/>
<path d="M38.6936 1.04637L20.6951 19.0449V28.9891L33.6633 16.0208V33.6709H20.6951V40.7019H39.5225C40.1694 40.7019 40.6944 40.1769 40.6944 39.5301V1.87526C40.6943 0.834652 39.431 0.308877 38.6936 1.04637V1.04637Z" fill="#AEDAFF"/>
<path d="M16.0077 11.328H6.63306V33.5927L7.4143 34.7646H15.2265L16.0077 33.5927V11.328Z" fill="#FFAA17"/>
<path d="M16.0076 11.328V33.5927L15.2264 34.7646H11.3203V23.0463V11.328H16.0076Z" fill="#FF7900"/>
<path d="M7.4143 34.7645L6.63306 35.9364V39.53C6.63306 40.1772 7.15774 40.7019 7.80492 40.7019H14.8359C15.4831 40.7019 16.0078 40.1772 16.0078 39.53V35.9364L15.2265 34.7645H7.4143Z" fill="#FFAA17"/>
<path d="M16.0077 35.9363V39.53C16.0077 40.1769 15.4827 40.7019 14.8359 40.7019H11.3203V34.7645H15.2265L16.0077 35.9363Z" fill="#FF7900"/>
<path d="M29.9916 1.87694V7.81421L29.2103 9.0281L29.9916 10.1579V12.5796L29.2103 13.7154L29.9916 14.9233V17.1888L29.2103 18.3786L29.9916 19.5324V21.9542L29.2103 23.2101L29.9916 24.2978V26.7196L29.2103 27.9455L29.9916 29.0633V31.485L29.2103 32.6809L29.9916 33.8287V39.5316C29.9916 40.1784 29.4666 40.7034 28.8197 40.7034H19.5232C18.8763 40.7034 18.3513 40.1784 18.3513 39.5316V1.87694C18.3513 1.23007 18.8763 0.705078 19.5232 0.705078H28.8197C29.4666 0.705078 29.9916 1.23007 29.9916 1.87694V1.87694Z" fill="#FFDA2D"/>
<path d="M29.9917 7.81421L29.2105 9.02826L29.9917 10.1579V12.5797L29.2105 13.7156L29.9917 14.9234V17.1889L29.2105 18.3788L29.9917 19.5327V21.9544L29.2105 23.2107L29.9917 24.2982V26.7199L29.2105 27.9457L29.9917 29.0637V31.4854L29.2105 32.6815L29.9917 33.8291V39.532C29.9917 40.1789 29.4667 40.7039 28.8199 40.7039H24.1716V0.705078H28.8199C29.4667 0.705078 29.9917 1.23007 29.9917 1.87694V7.81421Z" fill="#FFAA17"/>
<path d="M29.9916 12.578V14.9216H25.6948C25.0479 14.9216 24.5229 14.3966 24.5229 13.7498C24.5229 13.1029 25.0479 12.5779 25.6948 12.5779H29.9916V12.578Z" fill="#FF7900"/>
<path d="M29.9916 7.81246V10.1561H25.6948C25.0479 10.1561 24.5229 9.63113 24.5229 8.98425C24.5229 8.33738 25.0479 7.81238 25.6948 7.81238H29.9916V7.81246Z" fill="#FF7900"/>
<path d="M29.9916 31.4835V33.8272H25.6948C25.0479 33.8272 24.5229 33.3022 24.5229 32.6553C24.5229 32.0084 25.0479 31.4834 25.6948 31.4834H29.9916V31.4835Z" fill="#FF7900"/>
<path d="M29.9916 26.718V29.0617H25.6948C25.0479 29.0617 24.5229 28.5366 24.5229 27.8898C24.5229 27.2429 25.0479 26.7179 25.6948 26.7179H29.9916V26.718Z" fill="#FF7900"/>
<path d="M29.9916 21.9526V24.2963H25.6948C25.0479 24.2963 24.5229 23.7713 24.5229 23.1244C24.5229 22.4775 25.0479 21.9525 25.6948 21.9525H29.9916V21.9526Z" fill="#FF7900"/>
<path d="M29.9916 17.1871V19.5308H25.6948C25.0479 19.5308 24.5229 19.0058 24.5229 18.3589C24.5229 17.712 25.0479 17.187 25.6948 17.187H29.9916V17.1871Z" fill="#FF7900"/>
<path d="M6.63306 33.5928H16.0077V35.9364H6.63306V33.5928Z" fill="#FF637B"/>
<path d="M11.3203 33.5928H16.0077V35.9365H11.3203V33.5928Z" fill="#E63950"/>
</g>
<defs>
<clipPath id="clip0">
<rect width="40" height="40" fill="white" transform="translate(0.69458 0.701904)"/>
</clipPath>
</defs>
</svg>
