<svg width="40" height="40" viewBox="0 0 40 40" fill="none" xmlns="http://www.w3.org/2000/svg">
<g clip-path="url(#clip0)">
<path d="M10.0751 0L11.3803 14.843L10.0751 29.8273H9.93992C7.56179 29.8273 5.63367 31.7555 5.63367 34.1328V2.81719C5.63367 1.26094 6.89539 0 8.45085 0L10.0751 0Z" fill="#FFAA17"/>
<path d="M33.75 32.2784V37.5494H9.40785C8.40519 37.5494 7.59167 36.736 7.59167 35.7332V34.0945C7.59167 33.0918 8.40511 32.2783 9.40785 32.2783H33.75V32.2784Z" fill="#D9ECFD"/>
<path d="M33.75 34.9141V37.5496H9.40785C8.40519 37.5496 7.59167 36.7362 7.59167 35.7334V34.9141H33.75Z" fill="#C5E2FF"/>
<path d="M33.8038 0H10.0759V29.8273H9.94062C7.56258 29.8273 5.63477 31.7552 5.63477 34.1332V35.6942C5.63477 38.0723 7.56258 40.0001 9.94062 40.0001H33.8038C34.115 40.0001 34.3672 39.7478 34.3672 39.4367V37.988C34.3672 37.6769 34.1149 37.4247 33.8038 37.4247H9.9407C8.98508 37.4247 8.21031 36.65 8.21031 35.6943V34.1333C8.21031 33.1776 8.98508 32.4029 9.9407 32.4029H33.8039C34.1151 32.4029 34.3673 32.1506 34.3673 31.8395V29.8273V0.563359C34.3673 0.252266 34.115 0 33.8038 0V0Z" fill="#FF7900"/>
<path d="M9.93977 29.8271C7.56172 29.8271 5.63391 31.755 5.63391 34.133V35.694C5.63391 38.0721 7.56172 39.9999 9.93977 39.9999H33.803C34.1142 39.9999 34.3663 39.7476 34.3663 39.4365V37.9879C34.3663 37.6767 34.1141 37.4245 33.803 37.4245H9.93977C8.98415 37.4245 8.20938 36.6498 8.20938 35.6941V34.1331C8.20938 33.1774 8.98407 32.4027 9.93977 32.4027H33.803C34.1142 32.4027 34.3663 32.1504 34.3663 31.8393V29.8272H9.93977V29.8271Z" fill="#FF562F"/>
<path d="M28.9381 10.9717H15.5142C15.2121 10.9717 14.9673 10.7269 14.9673 10.4249V5.02197C14.9673 4.71994 15.2121 4.4751 15.5142 4.4751H28.9381C29.2401 4.4751 29.4849 4.71994 29.4849 5.02197V10.4248C29.4849 10.7269 29.2401 10.9717 28.9381 10.9717Z" fill="#FFC85E"/>
<path d="M26.8942 20.0475H17.5582C17.2247 20.0475 16.9546 19.7773 16.9546 19.4439C16.9546 19.1106 17.2248 18.8403 17.5582 18.8403H26.8942C27.2276 18.8403 27.4978 19.1106 27.4978 19.4439C27.4978 19.7773 27.2275 20.0475 26.8942 20.0475Z" fill="#D9ECFD"/>
<path d="M26.8942 22.9303H17.5582C17.2247 22.9303 16.9546 22.6601 16.9546 22.3267C16.9546 21.9934 17.2248 21.7231 17.5582 21.7231H26.8942C27.2276 21.7231 27.4978 21.9934 27.4978 22.3267C27.4978 22.6601 27.2275 22.9303 26.8942 22.9303Z" fill="#D9ECFD"/>
</g>
<defs>
<clipPath id="clip0">
<rect width="40" height="40" fill="white"/>
</clipPath>
</defs>
</svg>
