<svg width="40" height="41" viewBox="0 0 40 41" fill="none" xmlns="http://www.w3.org/2000/svg">
<path d="M40.1501 6.36763L38.5739 3.29586L36.6547 2.90515L34.6957 3.29586L33.1545 6.37857C33.0748 6.53798 33.033 6.71302 33.033 6.8904V22.05L33.5159 23.2582L39.7935 23.2642L40.2764 22.05V6.89048C40.2764 6.70911 40.2329 6.53016 40.1501 6.36763V6.36763Z" fill="#FFDA2D"/>
<path d="M40.1502 6.36763L38.574 3.29586L36.6548 2.90515V23.2612L39.7936 23.2643L40.2765 22.05V6.8904C40.2765 6.70911 40.2331 6.53016 40.1502 6.36763V6.36763Z" fill="#FFAA17"/>
<path d="M3.93834 40.9603C1.91588 40.9603 0.276367 39.3684 0.276367 37.4048V2.20179C0.276367 1.55447 0.81689 1.02966 1.48361 1.02966H28.1234C28.7901 1.02966 29.3307 1.55447 29.3307 2.20179C29.3307 4.07119 29.3605 35.8497 29.3605 35.8497L5.36385 40.8288C4.91089 40.9228 4.44852 40.9672 3.98534 40.9609L3.93834 40.9603Z" fill="#FFAA17"/>
<path d="M29.3602 35.8503L14.8186 38.8673V1.03015H28.1232C28.7896 1.03015 29.3305 1.55527 29.3305 2.20228C29.3305 69.9226 29.3321 4.82395 29.3602 35.8503V35.8503Z" fill="#FF7900"/>
<path d="M24.421 17.5176C25.0878 17.5176 25.6283 16.9928 25.6283 16.3455V9.15638C25.6283 8.50906 25.0878 7.98425 24.421 7.98425H10.0146C9.3479 7.98425 8.80737 8.50906 8.80737 9.15638C8.80737 9.80371 9.3479 10.3285 10.0146 10.3285H13.5559V16.2673C13.5559 16.9146 14.0964 17.4394 14.7631 17.4394C15.4298 17.4394 15.9703 16.9146 15.9703 16.2673V10.3285H23.2138V15.1733H19.5921C18.9254 15.1733 18.3848 15.6981 18.3848 16.3455V20.9558C18.3848 21.6032 18.9254 22.128 19.5921 22.128H23.2138V26.8165H22.087C21.4203 26.8165 20.8798 27.3413 20.8798 27.9886C20.8798 28.636 21.4203 29.1608 22.087 29.1608H24.421C25.0878 29.1608 25.6283 28.636 25.6283 27.9886V20.9558C25.6283 20.3085 25.0878 19.7837 24.421 19.7837H20.7993V17.5176H24.421Z" fill="#FFEDF7"/>
<path d="M20.7993 17.5176V19.7837H24.421C25.0874 19.7837 25.6283 20.3088 25.6283 20.9558V27.9886C25.6283 28.6356 25.0874 29.1608 24.421 29.1608H22.087C21.4206 29.1608 20.8798 28.6356 20.8798 27.9886C20.8798 27.3416 21.4206 26.8165 22.087 26.8165H23.2138V22.128H19.592C18.9256 22.128 18.3848 21.6029 18.3848 20.9558V16.3455C18.3848 15.6984 18.9256 15.1733 19.592 15.1733H23.2138V10.3285H15.9703V16.2673C15.9703 16.8964 15.4592 17.4098 14.8186 17.4379V7.98425H24.421C25.0874 7.98425 25.6283 8.50937 25.6283 9.15638V16.3455C25.6283 16.9925 25.0874 17.5176 24.421 17.5176H20.7993Z" fill="#FCECFF"/>
<path d="M39.7935 23.264L40.2764 24.3941V29.1608C40.2764 29.8078 39.7356 30.3329 39.0692 30.3329H34.2402C33.5738 30.3329 33.033 29.8078 33.033 29.1608V24.3941L33.5159 23.2581L39.7935 23.264Z" fill="#E63950"/>
<path d="M40.2765 24.3942V29.1608C40.2765 29.8078 39.7357 30.333 39.0693 30.333H36.6548V23.2611L39.7936 23.2642L40.2765 24.3942Z" fill="#CD0000"/>
<path d="M33.033 22.0499H40.2764V24.3942H33.033V22.0499Z" fill="#FFAA17"/>
<path d="M36.6548 22.0499H40.2765V24.3942H36.6548V22.0499Z" fill="#FF7900"/>
<path d="M30.4976 33.8494H6.31763C5.92398 33.8494 5.76664 34.3385 6.08753 34.56C7.01179 35.1979 7.6002 36.213 7.6002 37.4048C7.6002 39.3685 5.96068 40.9603 3.93823 40.9603H30.4976C32.52 40.9603 34.1595 39.3685 34.1595 37.4048C34.1595 35.4412 32.52 33.8494 30.4976 33.8494V33.8494Z" fill="#FFD06E"/>
<path d="M34.1594 37.4048C34.1594 39.3686 32.5193 40.9603 30.4975 40.9603H14.8186V33.8494H30.4975C32.5201 33.8494 34.1594 35.4418 34.1594 37.4048Z" fill="#FFAA17"/>
<path d="M17.9665 27.2994L6.21602 8.62348C5.58262 7.61686 3.97852 8.05398 3.97852 9.23456V27.9105C3.97852 28.5578 4.51904 29.0826 5.18576 29.0826H16.9362C17.8735 29.0826 18.4598 28.0836 17.9665 27.2994ZM6.393 26.7384V13.4018L14.7841 26.7384H6.393Z" fill="#FFEDF7"/>
<path d="M17.9663 27.2995L14.8186 22.2969V29.0827H16.9361C17.8737 29.0827 18.4596 28.0833 17.9663 27.2995V27.2995Z" fill="#FCECFF"/>
<path d="M38.574 3.29564H34.6956L35.5301 1.62645C35.9707 0.745003 37.2618 0.738517 37.7118 1.61551L38.574 3.29564Z" fill="#FFEDF7"/>
<path d="M38.5743 3.29682H36.6548V0.963501C37.0757 0.972878 37.4934 1.19089 37.7123 1.61677L38.5743 3.29682Z" fill="#FCECFF"/>
</svg>
