<svg width="40" height="40" viewBox="0 0 40 40" fill="none" xmlns="http://www.w3.org/2000/svg">
<path d="M10 0C8.625 0 7.5 1.125 7.5 2.5V37.5C7.5 38.875 8.625 40 10 40H35C36.375 40 37.5 38.875 37.5 37.5V10L27.5 0H10Z" fill="#E2E5E7"/>
<path d="M30 10H37.5L27.5 0V7.5C27.5 8.875 28.625 10 30 10Z" fill="#B0B7BD"/>
<path d="M37.5 17.5L30 10H37.5V17.5Z" fill="#CAD1D8"/>
<path d="M32.5 32.5C32.5 33.1875 31.9375 33.75 31.25 33.75H3.75C3.0625 33.75 2.5 33.1875 2.5 32.5V20C2.5 19.3125 3.0625 18.75 3.75 18.75H31.25C31.9375 18.75 32.5 19.3125 32.5 20V32.5Z" fill="#F15642"/>
<path d="M8.23877 23.6837C8.23877 23.3537 8.49877 22.9937 8.91752 22.9937H11.2263C12.5263 22.9937 13.6963 23.8637 13.6963 25.5312C13.6963 27.1112 12.5263 27.9912 11.2263 27.9912H9.55752V29.3112C9.55752 29.7512 9.27877 29.9999 8.91877 29.9999C8.58877 29.9999 8.24002 29.7512 8.24002 29.3112V23.6837H8.23877V23.6837ZM9.55752 24.2524V26.7424H11.2263C11.8963 26.7424 12.4263 26.1512 12.4263 25.5312C12.4263 24.8324 11.8963 24.2524 11.2263 24.2524H9.55752Z" fill="white"/>
<path d="M14.9701 23.6837C14.9701 23.3537 15.2301 22.9937 15.6501 22.9937H17.9588C19.2588 22.9937 20.4288 23.8637 20.4288 25.5312C20.4288 27.1112 19.2588 27.9912 17.9588 27.9912H16.2901V29.3112C16.2901 29.7512 16.0101 29.9999 15.6501 29.9999C15.3201 29.9999 14.9701 29.7512 14.9701 29.3112V23.6837V23.6837ZM16.2888 24.2524V26.7424H17.9576C18.6276 26.7424 19.1576 26.1512 19.1576 25.5312C19.1576 24.8324 18.6276 24.2524 17.9576 24.2524H16.2888Z" fill="white"/>
<path d="M23.5688 24.3339H21.8213C20.9513 24.3339 20.9513 23.0552 21.8213 23.0552H26.5476C27.4376 23.0552 27.4376 24.3339 26.5476 24.3339H24.8888V29.3814C24.8888 30.2502 23.5688 30.2714 23.5688 29.3814V24.3339Z" fill="white"/>
<path d="M31.25 33.75H7.5V35H31.25C31.9375 35 32.5 34.4375 32.5 33.75V32.5C32.5 33.1875 31.9375 33.75 31.25 33.75Z" fill="#CAD1D8"/>
</svg>
