<svg width="41" height="41" viewBox="0 0 41 41" fill="none" xmlns="http://www.w3.org/2000/svg">
<path d="M40.6946 8.37561V39.0108C40.6946 39.6576 40.1696 40.1826 39.5227 40.1826H6.71021C6.06333 40.1826 5.53833 39.6576 5.53833 39.0108V34.7139H25.2499L35.0696 27.2079V7.20374H39.5227C40.1696 7.20374 40.6946 7.72874 40.6946 8.37561Z" fill="#FF637B"/>
<path d="M40.6946 8.37561V39.0108C40.6946 39.6576 40.1696 40.1826 39.5227 40.1826H18.2727V34.7139H25.25L35.0696 27.2076V7.20374H39.5227C40.1696 7.20374 40.6946 7.72874 40.6946 8.37561Z" fill="#E63950"/>
<path d="M25.304 35.4951H1.86646C1.21927 35.4951 0.69458 34.9704 0.69458 34.3232V6.19824C0.69458 5.55105 1.21927 5.02637 1.86646 5.02637H24.1321L25.2707 5.80762L26.4758 5.02637H34.679C35.3258 5.02637 35.8508 5.55137 35.8508 6.19824L35.8479 27.2139L29.1186 31.2718L25.304 35.4951Z" fill="#FFDA2D"/>
<path d="M35.8508 6.19824L35.8477 27.2139L29.1188 31.2717L25.304 35.4951H18.2727V5.02637H24.1321L25.2879 5.80762L26.4758 5.02637H34.679C35.3258 5.02637 35.8508 5.55137 35.8508 6.19824Z" fill="#FFAA17"/>
<path d="M25.304 28.3857V35.4951L35.8463 27.2139H26.4758C25.8286 27.2139 25.304 27.7386 25.304 28.3857Z" fill="#FF7900"/>
<path d="M8.8977 19.0107H27.6477C28.2949 19.0107 28.8196 18.4861 28.8196 17.8389C28.8196 17.1917 28.2949 16.667 27.6477 16.667H8.8977C8.25052 16.667 7.72583 17.1917 7.72583 17.8389C7.72583 18.4861 8.25052 19.0107 8.8977 19.0107Z" fill="#FF7900"/>
<path d="M28.8196 17.8389C28.8196 18.4857 28.2946 19.0107 27.6477 19.0107H18.2727V16.667H27.6477C28.2946 16.667 28.8196 17.192 28.8196 17.8389Z" fill="#FF4800"/>
<path d="M8.89771 23.6982H19.054C19.7011 23.6982 20.2258 23.1736 20.2258 22.5264C20.2258 21.8792 19.7011 21.3545 19.054 21.3545H8.89771C8.25052 21.3545 7.72583 21.8792 7.72583 22.5264C7.72583 23.1736 8.25052 23.6982 8.89771 23.6982Z" fill="#FF7900"/>
<path d="M20.2258 22.5264C20.2258 23.1732 19.7008 23.6982 19.054 23.6982H18.2727V21.3545H19.054C19.7008 21.3545 20.2258 21.8795 20.2258 22.5264Z" fill="#FF4800"/>
<path d="M20.6165 26.042H8.8977C8.25052 26.042 7.72583 26.5667 7.72583 27.2139C7.72583 27.8611 8.25052 28.3857 8.8977 28.3857H20.6165C21.2636 28.3857 21.7883 27.8611 21.7883 27.2139C21.7883 26.5667 21.2636 26.042 20.6165 26.042Z" fill="#FF7900"/>
<path d="M21.7883 27.2139C21.7883 27.8607 21.2633 28.3857 20.6165 28.3857H18.2727V26.042H20.6165C21.2633 26.042 21.7883 26.567 21.7883 27.2139Z" fill="#FF4800"/>
<path d="M27.6477 21.3545H23.7415C23.0943 21.3545 22.5696 21.8792 22.5696 22.5264C22.5696 23.1736 23.0943 23.6982 23.7415 23.6982H27.6477C28.2949 23.6982 28.8196 23.1736 28.8196 22.5264C28.8196 21.8792 28.2949 21.3545 27.6477 21.3545Z" fill="#FF4800"/>
<path d="M24.1321 0.182617C21.5474 0.182617 19.4446 2.28543 19.4446 4.87012V10.8076C19.4446 12.7461 21.0217 14.3232 22.9602 14.3232C24.8987 14.3232 26.4758 12.7461 26.4758 10.8076V5.0284H24.1321V10.8076C24.1321 11.4538 23.6064 11.9795 22.9602 11.9795C22.314 11.9795 21.7883 11.4538 21.7883 10.8076V4.87012C21.7883 3.57777 22.8397 2.52637 24.1321 2.52637C25.4244 2.52637 26.4758 3.57777 26.4758 4.87012V5.0284H28.8196V4.87012C28.8196 2.28543 26.7168 0.182617 24.1321 0.182617Z" fill="#FF4B32"/>
</svg>
