<svg width="40" height="40" viewBox="0 0 40 40" fill="none" xmlns="http://www.w3.org/2000/svg">
<path d="M38.75 6.25098H21.25C20.56 6.25098 20 6.81098 20 7.50098V32.501C20 33.191 20.56 33.751 21.25 33.751H38.75C39.44 33.751 40 33.191 40 32.501V7.50098C40 6.81098 39.44 6.25098 38.75 6.25098Z" fill="#ECEFF1"/>
<path d="M33.75 28.751H21.25C20.56 28.751 20 28.191 20 27.501C20 26.811 20.56 26.251 21.25 26.251H33.75C34.44 26.251 35 26.811 35 27.501C35 28.191 34.44 28.751 33.75 28.751Z" fill="#F57C00"/>
<path d="M26.25 12C22.7975 12 20 14.7975 20 18.25C20 21.7025 22.7975 24.5 26.25 24.5C29.7025 24.5 32.5 21.7025 32.5 18.25H26.25V12Z" fill="#F57C00"/>
<path d="M30 8.75098V15.001H36.25C36.25 11.5485 33.4525 8.75098 30 8.75098Z" fill="#F57C00"/>
<path d="M22.0475 1.5387C21.7625 1.3012 21.38 1.1987 21.02 1.2737L1.02 5.0237C0.4275 5.1337 0 5.6487 0 6.2512V33.7512C0 34.3512 0.4275 34.8687 1.02 34.9787L21.02 38.7287C21.095 38.7437 21.1725 38.7512 21.25 38.7512C21.54 38.7512 21.8225 38.6512 22.0475 38.4637C22.335 38.2262 22.5 37.8712 22.5 37.5012V2.5012C22.5 2.1287 22.335 1.7762 22.0475 1.5387Z" fill="#EF6C00"/>
<path d="M8.75 28.751C8.06 28.751 7.5 28.191 7.5 27.501V15.001C7.5 14.311 8.06 13.751 8.75 13.751H12.5C15.2575 13.751 17.5 15.9935 17.5 18.751C17.5 21.5085 15.2575 23.751 12.5 23.751H10V27.501C10 28.191 9.44 28.751 8.75 28.751ZM10 21.251H12.5C13.8775 21.251 15 20.1285 15 18.751C15 17.3735 13.8775 16.251 12.5 16.251H10V21.251Z" fill="#FAFAFA"/>
</svg>
