<svg width="40" height="40" viewBox="0 0 40 40" fill="none" xmlns="http://www.w3.org/2000/svg">
<path d="M1.17188 31.7188V36.4062H20H38.8281V31.7188H20H1.17188Z" fill="white"/>
<path d="M20 3.59375H1.17188V8.28125H20H38.8281V3.59375H20Z" fill="white"/>
<path d="M20 3.59375H38.8281V8.28125H20V3.59375Z" fill="white"/>
<path d="M20 31.7188H38.8281V36.4062H20V31.7188Z" fill="white"/>
<path d="M20 8.28125H2.34375V31.7188H20H37.6562V8.28125H20Z" fill="#FF641A"/>
<path d="M20 8.28125H37.6562V31.7188H20V8.28125Z" fill="#FF5420"/>
<path d="M0 30.5469V37.5781H20H40V30.5469H20H0ZM6.32812 35.2344H2.34375V32.8906H6.32812V35.2344ZM12.5781 35.2344H8.67188V32.8906H12.5781V35.2344ZM18.8281 35.2344H14.9219V32.8906H18.8281V35.2344ZM33.6719 32.8906H37.6562V35.2344H33.6719V32.8906ZM27.4219 32.8906H31.3281V35.2344H27.4219V32.8906ZM21.1719 32.8906H25.0781V35.2344H21.1719V32.8906Z" fill="#FFAA17"/>
<path d="M20 2.42188H0V9.45312H20H40V2.42188H20ZM6.32812 7.10938H2.34375V4.76562H6.32812V7.10938ZM12.5781 7.10938H8.67188V4.76562H12.5781V7.10938ZM18.8281 7.10938H14.9219V4.76562H18.8281V7.10938ZM25.0781 7.10938H21.1719V4.76562H25.0781V7.10938ZM31.3282 7.10938H27.4219V4.76562H31.3282V7.10938ZM37.6562 7.10938H33.6641V4.76562H37.6562V7.10938Z" fill="#FFAA17"/>
<path d="M25.0781 7.10938H21.1719V4.76562H25.0781V7.10938ZM31.3282 7.10938H27.4219V4.76562H31.3282V7.10938ZM20 2.42188V9.45312H40V2.42188H20ZM37.6562 7.10938H33.6641V4.76562H37.6562V7.10938Z" fill="#FF7900"/>
<path d="M40 30.5469H20V37.5781H40V30.5469ZM25.0781 35.2344H21.1719V32.8906H25.0781V35.2344ZM31.3281 35.2344H27.4219V32.8906H31.3281V35.2344ZM37.6562 35.2344H33.6719V32.8906H37.6562V35.2344Z" fill="#FF7900"/>
<path d="M20 15.4671L16.4844 13.1235V26.877L20 24.5334L26.8001 20.0003L20 15.4671Z" fill="#F0F7FF"/>
<path d="M20 15.4668V24.533L26.8001 19.9999L20 15.4668Z" fill="white"/>
</svg>
